<svg data-v-423bf9ae="" xmlns="http://www.w3.org/2000/svg" viewBox="0 0 322.13152488419666 60" class="font"><!----><!----><!----><g data-v-423bf9ae="" id="14526724-1408-4130-82c4-3458ddcce729" fill="black" transform="matrix(4.535147549208299,0,0,4.535147549208299,-4.807258449105262,-0.9523800993059659)"><path d="M2.72 10.50L2.72 6.10L7.14 6.10L7.14 4.62L2.72 4.62L2.72 1.90L7.98 1.90L7.98 0.42L1.06 0.42L1.06 10.50ZM11.09 10.50L11.09 0.21L9.53 0.77L9.53 10.50ZM12.39 6.86C12.39 9.37 13.87 10.71 15.88 10.71C17.86 10.71 19.35 9.37 19.35 6.86C19.35 4.35 17.86 3.01 15.88 3.01C13.87 3.01 12.39 4.35 12.39 6.86ZM13.94 6.86C13.94 5.10 14.81 4.31 15.88 4.31C16.93 4.31 17.79 5.10 17.79 6.86C17.79 8.62 16.93 9.42 15.88 9.42C14.81 9.42 13.94 8.62 13.94 6.86ZM23.56 10.50L25.02 5.17L26.38 10.50L27.85 10.50L30.11 3.22L28.63 3.22L27.10 8.54L25.73 3.22L24.26 3.22L22.86 8.69L21.43 3.22L19.87 3.22L22.06 10.50ZM38.49 10.50L38.49 9.02L32.97 9.02L32.97 0.42L31.32 0.42L31.32 10.50ZM39.06 6.86C39.06 9.37 40.54 10.71 42.55 10.71C44.53 10.71 46.02 9.37 46.02 6.86C46.02 4.35 44.53 3.01 42.55 3.01C40.54 3.01 39.06 4.35 39.06 6.86ZM40.61 6.86C40.61 5.10 41.48 4.31 42.55 4.31C43.60 4.31 44.46 5.10 44.46 6.86C44.46 8.62 43.60 9.42 42.55 9.42C41.48 9.42 40.61 8.62 40.61 6.86ZM53.44 10.04L53.44 3.22L52.02 3.22L52.02 4.17C51.60 3.47 50.93 3.01 50.02 3.01C48.10 3.01 46.89 4.47 46.89 6.83C46.89 9.20 48.13 10.67 50.05 10.67C50.82 10.67 51.46 10.35 51.88 9.79L51.88 10.25C51.91 11.47 51.35 12.18 50.12 12.18C49.31 12.18 48.68 11.82 48.61 11.14L47.12 10.96C47.12 12.70 48.69 13.44 50.11 13.44C52.67 13.44 53.44 11.84 53.44 10.04ZM52.04 6.83C52.04 8.54 51.25 9.37 50.22 9.37C49.20 9.37 48.44 8.54 48.44 6.83C48.44 5.14 49.21 4.31 50.22 4.31C51.13 4.31 52.04 5.14 52.04 6.83ZM56.70 2.00L56.70 0.42L55.15 0.42L55.15 2.00ZM56.70 10.50L56.70 3.22L55.15 3.22L55.15 10.50ZM59.56 6.86C59.56 5.10 60.37 4.31 61.39 4.31C62.17 4.31 62.79 4.75 63.01 5.81L64.53 5.52C64.13 3.85 62.96 3.01 61.39 3.01C59.42 3.01 58.00 4.35 58.00 6.86C58.00 9.37 59.42 10.71 61.39 10.71C62.96 10.71 64.13 9.88 64.53 8.22L63.01 7.92C62.79 8.97 62.17 9.42 61.39 9.42C60.35 9.42 59.56 8.62 59.56 6.86ZM70.22 9.66C70.25 9.97 70.31 10.30 70.52 10.50L72.09 10.50C71.83 10.23 71.69 9.76 71.69 9.02L71.69 5.92C71.69 3.95 70.67 3.01 68.75 3.01C67.37 3.01 66.02 3.53 65.66 5.21L67.06 5.59C67.27 4.79 67.76 4.27 68.64 4.27C69.58 4.27 70.14 4.75 70.14 5.64L70.14 5.88C69.78 6.05 69.06 6.17 68.29 6.24C66.63 6.43 65.44 7.04 65.44 8.61C65.44 10.04 66.57 10.71 67.90 10.71C68.77 10.71 69.54 10.43 70.22 9.66ZM70.14 8.41C69.80 8.90 69.03 9.51 68.19 9.51C67.55 9.51 67.03 9.24 67.03 8.53C67.02 7.67 67.76 7.48 68.49 7.35C69.19 7.24 69.83 7.08 70.14 6.96Z"></path></g><!----><!----></svg>